<mxfile host="app.diagrams.net" modified="2023-01-22T12:57:45.387Z" agent="5.0 (Macintosh; Intel Mac OS X 10_15_7) AppleWebKit/537.36 (KHTML, like Gecko) Chrome/108.0.0.0 Safari/537.36" etag="LGAhxmjyeypF-E3xrPWE" version="20.4.0" type="github">
  <diagram id="c3MBhsamdoNNhWPPPOBi" name="Page-1">
    <mxGraphModel dx="1258" dy="641" grid="1" gridSize="10" guides="1" tooltips="1" connect="1" arrows="1" fold="1" page="1" pageScale="1" pageWidth="850" pageHeight="1100" math="0" shadow="0">
      <root>
        <mxCell id="0" />
        <mxCell id="1" parent="0" />
        <mxCell id="e8DEwfpcFgEpc3TkqBYJ-7" style="edgeStyle=orthogonalEdgeStyle;rounded=0;orthogonalLoop=1;jettySize=auto;html=1;exitX=0.5;exitY=1;exitDx=0;exitDy=0;" edge="1" parent="1" source="e8DEwfpcFgEpc3TkqBYJ-1" target="e8DEwfpcFgEpc3TkqBYJ-3">
          <mxGeometry relative="1" as="geometry" />
        </mxCell>
        <mxCell id="e8DEwfpcFgEpc3TkqBYJ-11" style="edgeStyle=orthogonalEdgeStyle;rounded=0;orthogonalLoop=1;jettySize=auto;html=1;exitX=1;exitY=0.5;exitDx=0;exitDy=0;entryX=0;entryY=0.5;entryDx=0;entryDy=0;" edge="1" parent="1" source="e8DEwfpcFgEpc3TkqBYJ-1" target="e8DEwfpcFgEpc3TkqBYJ-2">
          <mxGeometry relative="1" as="geometry" />
        </mxCell>
        <mxCell id="e8DEwfpcFgEpc3TkqBYJ-1" value="Helen Pang" style="rounded=0;whiteSpace=wrap;html=1;" vertex="1" parent="1">
          <mxGeometry x="150" y="180" width="120" height="60" as="geometry" />
        </mxCell>
        <mxCell id="e8DEwfpcFgEpc3TkqBYJ-2" value="Roger Liong (4th)" style="rounded=0;whiteSpace=wrap;html=1;" vertex="1" parent="1">
          <mxGeometry x="305" y="100" width="120" height="60" as="geometry" />
        </mxCell>
        <mxCell id="e8DEwfpcFgEpc3TkqBYJ-8" style="edgeStyle=orthogonalEdgeStyle;rounded=0;orthogonalLoop=1;jettySize=auto;html=1;exitX=1;exitY=0.5;exitDx=0;exitDy=0;entryX=0;entryY=0.5;entryDx=0;entryDy=0;" edge="1" parent="1" source="e8DEwfpcFgEpc3TkqBYJ-3" target="e8DEwfpcFgEpc3TkqBYJ-4">
          <mxGeometry relative="1" as="geometry" />
        </mxCell>
        <mxCell id="e8DEwfpcFgEpc3TkqBYJ-9" style="edgeStyle=orthogonalEdgeStyle;rounded=0;orthogonalLoop=1;jettySize=auto;html=1;exitX=0.5;exitY=1;exitDx=0;exitDy=0;entryX=0.5;entryY=0;entryDx=0;entryDy=0;" edge="1" parent="1" source="e8DEwfpcFgEpc3TkqBYJ-3" target="e8DEwfpcFgEpc3TkqBYJ-5">
          <mxGeometry relative="1" as="geometry" />
        </mxCell>
        <mxCell id="e8DEwfpcFgEpc3TkqBYJ-10" style="edgeStyle=orthogonalEdgeStyle;rounded=0;orthogonalLoop=1;jettySize=auto;html=1;exitX=0.75;exitY=1;exitDx=0;exitDy=0;" edge="1" parent="1" source="e8DEwfpcFgEpc3TkqBYJ-3" target="e8DEwfpcFgEpc3TkqBYJ-6">
          <mxGeometry relative="1" as="geometry" />
        </mxCell>
        <mxCell id="e8DEwfpcFgEpc3TkqBYJ-3" value="Chris" style="rounded=0;whiteSpace=wrap;html=1;" vertex="1" parent="1">
          <mxGeometry x="140" y="290" width="120" height="60" as="geometry" />
        </mxCell>
        <mxCell id="e8DEwfpcFgEpc3TkqBYJ-4" value="Marina Ho" style="rounded=0;whiteSpace=wrap;html=1;" vertex="1" parent="1">
          <mxGeometry x="305" y="290" width="120" height="60" as="geometry" />
        </mxCell>
        <mxCell id="e8DEwfpcFgEpc3TkqBYJ-5" value="Ryan Liong" style="rounded=0;whiteSpace=wrap;html=1;" vertex="1" parent="1">
          <mxGeometry x="140" y="410" width="120" height="60" as="geometry" />
        </mxCell>
        <mxCell id="e8DEwfpcFgEpc3TkqBYJ-6" value="Mindy Liong" style="rounded=0;whiteSpace=wrap;html=1;" vertex="1" parent="1">
          <mxGeometry x="300" y="410" width="120" height="60" as="geometry" />
        </mxCell>
        <mxCell id="e8DEwfpcFgEpc3TkqBYJ-12" value="Leong Keng --- (2nd)" style="rounded=0;whiteSpace=wrap;html=1;" vertex="1" parent="1">
          <mxGeometry x="480" y="100" width="120" height="60" as="geometry" />
        </mxCell>
        <mxCell id="e8DEwfpcFgEpc3TkqBYJ-13" value="kenji Gma" style="rounded=0;whiteSpace=wrap;html=1;" vertex="1" parent="1">
          <mxGeometry x="630" y="100" width="120" height="60" as="geometry" />
        </mxCell>
        <mxCell id="e8DEwfpcFgEpc3TkqBYJ-14" value="Leonard (Ah heng)" style="rounded=0;whiteSpace=wrap;html=1;" vertex="1" parent="1">
          <mxGeometry x="480" y="290" width="120" height="60" as="geometry" />
        </mxCell>
        <mxCell id="e8DEwfpcFgEpc3TkqBYJ-27" style="edgeStyle=orthogonalEdgeStyle;rounded=0;orthogonalLoop=1;jettySize=auto;html=1;exitX=0.5;exitY=1;exitDx=0;exitDy=0;entryX=0.5;entryY=0;entryDx=0;entryDy=0;" edge="1" parent="1" source="e8DEwfpcFgEpc3TkqBYJ-15" target="e8DEwfpcFgEpc3TkqBYJ-23">
          <mxGeometry relative="1" as="geometry" />
        </mxCell>
        <mxCell id="e8DEwfpcFgEpc3TkqBYJ-15" value="Sister 1 (Jaslyn) (Ah Kian) Divorced" style="rounded=0;whiteSpace=wrap;html=1;" vertex="1" parent="1">
          <mxGeometry x="780" y="290" width="120" height="60" as="geometry" />
        </mxCell>
        <mxCell id="e8DEwfpcFgEpc3TkqBYJ-28" style="edgeStyle=orthogonalEdgeStyle;rounded=0;orthogonalLoop=1;jettySize=auto;html=1;exitX=0.5;exitY=1;exitDx=0;exitDy=0;entryX=0.45;entryY=-0.017;entryDx=0;entryDy=0;entryPerimeter=0;" edge="1" parent="1" source="e8DEwfpcFgEpc3TkqBYJ-16" target="e8DEwfpcFgEpc3TkqBYJ-24">
          <mxGeometry relative="1" as="geometry" />
        </mxCell>
        <mxCell id="e8DEwfpcFgEpc3TkqBYJ-16" value="Sister. 2 (Rachyl) (Sisi)" style="rounded=0;whiteSpace=wrap;html=1;" vertex="1" parent="1">
          <mxGeometry x="930" y="290" width="120" height="60" as="geometry" />
        </mxCell>
        <mxCell id="e8DEwfpcFgEpc3TkqBYJ-17" value="Sister 3 (Leona)" style="rounded=0;whiteSpace=wrap;html=1;" vertex="1" parent="1">
          <mxGeometry x="1230" y="290" width="120" height="60" as="geometry" />
        </mxCell>
        <mxCell id="e8DEwfpcFgEpc3TkqBYJ-19" value="" style="endArrow=none;dashed=1;html=1;dashPattern=1 3;strokeWidth=2;rounded=0;entryX=0;entryY=0.5;entryDx=0;entryDy=0;exitX=1;exitY=0.5;exitDx=0;exitDy=0;" edge="1" parent="1" source="e8DEwfpcFgEpc3TkqBYJ-2" target="e8DEwfpcFgEpc3TkqBYJ-12">
          <mxGeometry width="50" height="50" relative="1" as="geometry">
            <mxPoint x="390" y="310" as="sourcePoint" />
            <mxPoint x="470" y="150" as="targetPoint" />
          </mxGeometry>
        </mxCell>
        <mxCell id="e8DEwfpcFgEpc3TkqBYJ-20" value="Agnes Chua" style="rounded=0;whiteSpace=wrap;html=1;" vertex="1" parent="1">
          <mxGeometry x="630" y="290" width="120" height="60" as="geometry" />
        </mxCell>
        <mxCell id="e8DEwfpcFgEpc3TkqBYJ-22" value="Kenji" style="rounded=0;whiteSpace=wrap;html=1;" vertex="1" parent="1">
          <mxGeometry x="480" y="410" width="120" height="60" as="geometry" />
        </mxCell>
        <mxCell id="e8DEwfpcFgEpc3TkqBYJ-23" value="Ian" style="rounded=0;whiteSpace=wrap;html=1;" vertex="1" parent="1">
          <mxGeometry x="780" y="410" width="120" height="60" as="geometry" />
        </mxCell>
        <mxCell id="e8DEwfpcFgEpc3TkqBYJ-24" value="Corey" style="rounded=0;whiteSpace=wrap;html=1;" vertex="1" parent="1">
          <mxGeometry x="930" y="410" width="120" height="60" as="geometry" />
        </mxCell>
        <mxCell id="e8DEwfpcFgEpc3TkqBYJ-25" value="Glen (Australian)" style="rounded=0;whiteSpace=wrap;html=1;" vertex="1" parent="1">
          <mxGeometry x="1060" y="290" width="120" height="60" as="geometry" />
        </mxCell>
        <mxCell id="e8DEwfpcFgEpc3TkqBYJ-26" value="Electra" style="rounded=0;whiteSpace=wrap;html=1;" vertex="1" parent="1">
          <mxGeometry x="1060" y="410" width="120" height="60" as="geometry" />
        </mxCell>
        <mxCell id="e8DEwfpcFgEpc3TkqBYJ-29" value="Kieren" style="rounded=0;whiteSpace=wrap;html=1;" vertex="1" parent="1">
          <mxGeometry x="1230" y="410" width="120" height="60" as="geometry" />
        </mxCell>
        <mxCell id="e8DEwfpcFgEpc3TkqBYJ-30" value="Evan" style="rounded=0;whiteSpace=wrap;html=1;" vertex="1" parent="1">
          <mxGeometry x="1370" y="410" width="120" height="60" as="geometry" />
        </mxCell>
        <mxCell id="e8DEwfpcFgEpc3TkqBYJ-31" value="Daughter??" style="rounded=0;whiteSpace=wrap;html=1;" vertex="1" parent="1">
          <mxGeometry x="1510" y="410" width="120" height="60" as="geometry" />
        </mxCell>
      </root>
    </mxGraphModel>
  </diagram>
</mxfile>
